<?xml version="1.0" encoding="UTF-8" standalone="no"?>
<!-- Created with Inkscape (http://www.inkscape.org/) -->

<svg
   version="1.1"
   id="svg2"
   width="11"
   height="12"
   viewBox="0 0 11 12"
   sodipodi:docname="9_and_bracket_left.svg"
   inkscape:version="1.2.2 (b0a8486, 2022-12-01)"
   inkscape:export-filename="9_and_bracket_left.webp"
   inkscape:export-xdpi="192"
   inkscape:export-ydpi="192"
   xml:space="preserve"
   xmlns:inkscape="http://www.inkscape.org/namespaces/inkscape"
   xmlns:sodipodi="http://sodipodi.sourceforge.net/DTD/sodipodi-0.dtd"
   xmlns:xlink="http://www.w3.org/1999/xlink"
   xmlns="http://www.w3.org/2000/svg"
   xmlns:svg="http://www.w3.org/2000/svg"><defs
     id="defs6"><linearGradient
       id="base"
       inkscape:swatch="solid"
       gradientTransform="translate(-583.5,-151.75)"><stop
         style="stop-color:#ffffff;stop-opacity:1;"
         offset="0"
         id="stop7613" /></linearGradient><linearGradient
       inkscape:collect="always"
       xlink:href="#base"
       id="linearGradient1707"
       x1="120"
       y1="22.5"
       x2="123"
       y2="22.5"
       gradientUnits="userSpaceOnUse" /></defs><sodipodi:namedview
     id="namedview4"
     pagecolor="#7e2553"
     bordercolor="#000000"
     borderopacity="0.30196078"
     inkscape:showpageshadow="true"
     inkscape:pageopacity="0"
     inkscape:pagecheckerboard="true"
     inkscape:deskcolor="#1d2b53"
     showgrid="true"
     inkscape:zoom="32"
     inkscape:cx="9.125"
     inkscape:cy="4.953125"
     inkscape:window-width="1364"
     inkscape:window-height="1022"
     inkscape:window-x="524"
     inkscape:window-y="0"
     inkscape:window-maximized="0"
     inkscape:current-layer="svg2"
     showborder="true"
     borderlayer="true"><inkscape:grid
       type="xygrid"
       id="grid794"
       empspacing="9999"
       spacingx="0.25"
       spacingy="0.25"
       dotted="true"
       originx="0"
       originy="0"
       empcolor="#c2c3c7"
       empopacity="0.30196078"
       color="#c2c3c7"
       opacity="0.14901961" /><inkscape:grid
       type="xygrid"
       id="grid1166"
       empspacing="8"
       originx="0"
       originy="0"
       color="#c2c3c7"
       opacity="0.14901961"
       empcolor="#c2c3c7"
       empopacity="0.30196078" /></sodipodi:namedview><path
     style="display:inline;fill:url(#base);fill-opacity:1;stroke:none"
     d="M 8.75,3 H 7.5 c -0.50962,0.345028 -1,1.5 -1,2.5 0,1 0.49038,2.154972 1,2.5 H 8.75 C 8.25,7.5 7.5,7 7.5,5.5 7.5,4 8.25,3.5 8.75,3 Z"
     id="path19644-6"
     sodipodi:nodetypes="cczcczc"
     inkscape:label="bracket_left" /><g
     id="g21214"
     inkscape:label="9"
     style="display:inline;fill-opacity:1.0;fill:url(#linearGradient1707)"
     transform="translate(-118,-17)"><path
       style="opacity:1;fill:url(#linearGradient1707);fill-opacity:1.0;stroke:none"
       d="m 120.5,25 h 1.5 c 0,0 1,-1 1,-3.5 h -1 c 0,2 -1.5,3.5 -1.5,3.5 z"
       id="path21207"
       sodipodi:nodetypes="ccccc"
       inkscape:label="line" /><path
       id="path21205"
       style="display:inline;opacity:1;fill:url(#linearGradient1707);fill-opacity:1.0;stroke:none"
       d="m 121.5,20 c -1,0 -1.5,0.500001 -1.5,1.5 0,0.999999 0.5,1.5 1.5,1.5 1,0 1.5,-0.500001 1.5,-1.5 0,-0.999999 -0.5,-1.5 -1.5,-1.5 z m -0.0312,1 c 0.0101,-3.26e-4 0.0208,0 0.0312,0 0.33333,0 0.5,0.166667 0.5,0.5 0,0.333333 -0.16667,0.5 -0.5,0.5 -0.33333,0 -0.5,-0.166667 -0.5,-0.5 0,-0.322916 0.15593,-0.489909 0.46875,-0.5 z"
       inkscape:label="circle" /></g></svg>
