<?xml version="1.0" encoding="UTF-8" standalone="no"?>
<!-- Created with Inkscape (http://www.inkscape.org/) -->

<svg
   version="1.1"
   id="svg2"
   width="26"
   height="12"
   viewBox="0 0 26 12"
   sodipodi:docname="control.svg"
   inkscape:version="1.2.2 (b0a8486, 2022-12-01)"
   inkscape:export-filename="control.webp"
   inkscape:export-xdpi="192"
   inkscape:export-ydpi="192"
   xml:space="preserve"
   xmlns:inkscape="http://www.inkscape.org/namespaces/inkscape"
   xmlns:sodipodi="http://sodipodi.sourceforge.net/DTD/sodipodi-0.dtd"
   xmlns="http://www.w3.org/2000/svg"
   xmlns:svg="http://www.w3.org/2000/svg"><defs
     id="defs6"><linearGradient
       id="base"
       inkscape:swatch="solid"
       gradientTransform="matrix(0,-23.563642,18.181822,0,1002.5608,2169.7856)"><stop
         style="stop-color:#ffffff;stop-opacity:1;"
         offset="0"
         id="stop2822" /></linearGradient></defs><sodipodi:namedview
     id="namedview4"
     pagecolor="#7e2553"
     bordercolor="#000000"
     borderopacity="0.30196078"
     inkscape:showpageshadow="true"
     inkscape:pageopacity="0"
     inkscape:pagecheckerboard="true"
     inkscape:deskcolor="#1d2b53"
     showgrid="true"
     inkscape:zoom="32"
     inkscape:cx="9.34375"
     inkscape:cy="4.359375"
     inkscape:window-width="1888"
     inkscape:window-height="1038"
     inkscape:window-x="16"
     inkscape:window-y="0"
     inkscape:window-maximized="1"
     inkscape:current-layer="svg2"
     showborder="true"
     borderlayer="true"><inkscape:grid
       type="xygrid"
       id="grid794"
       empspacing="9999"
       spacingx="0.25"
       spacingy="0.25"
       dotted="true"
       originx="0"
       originy="0"
       empcolor="#c2c3c7"
       empopacity="0.30196078"
       color="#c2c3c7"
       opacity="0.14901961" /><inkscape:grid
       type="xygrid"
       id="grid1166"
       empspacing="8"
       originx="0"
       originy="0"
       color="#c2c3c7"
       opacity="0.14901961"
       empcolor="#c2c3c7"
       empopacity="0.30196078" /></sodipodi:namedview><path
     id="path19709"
     style="display:inline;fill:url(#base);fill-opacity:1;stroke:none"
     inkscape:label="ctrl"
     d="M 15.751953,2.8670588 C 15.385376,2.8652278 14.96875,2.9061218 14.5,2.9998718 v 5 h 1 v -1.5 l 1.5,1.5 h 1.25 L 16.566406,6.3162778 C 17.499999,5.9998728 18,5.4998708 18,4.4998718 18,3.6873728 17.340453,2.8749938 15.751953,2.8670588 Z M 7,2.9998718 c -0.999999,0 -2.5,0.500002 -2.5,2.5 0,1.999998 1.500001,2.5 2.5,2.5 0.999999,0 1.5,-0.5 1.5,-0.5 v -1 c 0,0 -0.500001,0.5 -1.5,0.5 -0.999999,0 -1.5,-0.500001 -1.5,-1.5 0,-0.999999 0.500001,-1.5 1.5,-1.5 0.999999,0 1.5,0.5 1.5,0.5 v -1 c 0,0 -0.500001,-0.5 -1.5,-0.5 z m 2.5,0 v 1 H 11 v 4 h 1 v -4 h 1.5 v -1 z m 9.5,0 v 5 h 3 v -1 h -2 v -4 z m -3.152344,0.972656 C 16.290771,3.9658138 17,4.0623728 17,4.7498718 c 0,0.999999 -1.5,0.75 -1.5,0.75 v -1.5 c 0,0 0.14624,-0.02429 0.347656,-0.02734 z" /></svg>
