<?xml version="1.0" encoding="UTF-8" standalone="no"?>
<!-- Created with Inkscape (http://www.inkscape.org/) -->

<svg
   version="1.1"
   id="svg2"
   width="24"
   height="24"
   viewBox="0 0 24 24"
   sodipodi:docname="dpad--center.svg"
   inkscape:version="1.2 (dc2aedaf03, 2022-05-15)"
   inkscape:export-filename="keycap_normal.webp"
   inkscape:export-xdpi="192"
   inkscape:export-ydpi="192"
   xml:space="preserve"
   xmlns:inkscape="http://www.inkscape.org/namespaces/inkscape"
   xmlns:sodipodi="http://sodipodi.sourceforge.net/DTD/sodipodi-0.dtd"
   xmlns:xlink="http://www.w3.org/1999/xlink"
   xmlns="http://www.w3.org/2000/svg"
   xmlns:svg="http://www.w3.org/2000/svg"><defs
     id="defs6"><linearGradient
       id="symbol"
       inkscape:swatch="solid"><stop
         style="stop-color:#c2c3c7;stop-opacity:1;"
         offset="0"
         id="stop1771" /></linearGradient><linearGradient
       id="tab_active_side"><stop
         style="stop-color:#83769c;stop-opacity:1;"
         offset="0"
         id="stop25251" /></linearGradient><linearGradient
       id="tab_inactive_foreground"><stop
         style="stop-color:#000000;stop-opacity:1;"
         offset="0"
         id="stop25014" /></linearGradient><linearGradient
       id="tab_inactive_surface"><stop
         style="stop-color:#83769c;stop-opacity:1;"
         offset="0"
         id="stop25008" /></linearGradient><linearGradient
       id="tab_inactive_side"><stop
         style="stop-color:#5f574f;stop-opacity:1;"
         offset="0"
         id="stop24946" /></linearGradient><linearGradient
       id="keycap_foreground_secondary"
       gradientTransform="translate(-41.5,1.25)"><stop
         style="stop-color:#83769c;stop-opacity:1;"
         offset="0"
         id="stop7613" /></linearGradient><linearGradient
       id="keycap_surface"
       inkscape:swatch="solid"
       gradientTransform="matrix(0.01851852,0,0,0.01851852,116.08333,21.222222)"><stop
         style="stop-color:#000000;stop-opacity:1;"
         offset="0"
         id="stop1527" /></linearGradient><linearGradient
       id="keycap_border"
       inkscape:swatch="solid"><stop
         style="stop-color:#83769c;stop-opacity:1;"
         offset="0"
         id="stop1521" /></linearGradient><linearGradient
       id="keycap_side"
       inkscape:swatch="solid"
       gradientTransform="matrix(1,0,0,1.016129,0,1.6774196)"><stop
         style="stop-color:#5f574f;stop-opacity:1;"
         offset="0"
         id="stop1515" /></linearGradient><linearGradient
       inkscape:collect="always"
       xlink:href="#keycap_border"
       id="linearGradient4732"
       gradientUnits="userSpaceOnUse"
       gradientTransform="translate(-51,-13)"
       x1="49"
       y1="54.5"
       x2="60"
       y2="54.5" /></defs><sodipodi:namedview
     id="namedview4"
     pagecolor="#7e2553"
     bordercolor="#000000"
     borderopacity="0.30196078"
     inkscape:showpageshadow="true"
     inkscape:pageopacity="0"
     inkscape:pagecheckerboard="true"
     inkscape:deskcolor="#1d2b53"
     showgrid="true"
     inkscape:zoom="16.000001"
     inkscape:cx="11"
     inkscape:cy="7.7499997"
     inkscape:window-width="1920"
     inkscape:window-height="1017"
     inkscape:window-x="-8"
     inkscape:window-y="-8"
     inkscape:window-maximized="1"
     inkscape:current-layer="svg2"
     showborder="true"
     borderlayer="true"><inkscape:grid
       type="xygrid"
       id="grid794"
       empspacing="9999"
       spacingx="0.25"
       spacingy="0.25"
       dotted="true"
       originx="0"
       originy="0"
       empcolor="#c2c3c7"
       empopacity="0.30196078"
       color="#c2c3c7"
       opacity="0.14901961" /><inkscape:grid
       type="xygrid"
       id="grid1166"
       empspacing="8"
       originx="0"
       originy="0"
       color="#c2c3c7"
       opacity="0.14901961"
       empcolor="#c2c3c7"
       empopacity="0.30196078" /></sodipodi:namedview><path
     id="path1395"
     style="display:inline;opacity:1;fill:url(#keycap_side);fill-opacity:1;stroke:none"
     inkscape:label="side"
     d="m -0.5,20 v 1 C 4,21 4,21 4,25.5 H 20 C 20,21 20,21 24.5,21 v -1 z"
     sodipodi:nodetypes="ccccccc" /><path
     id="path4634"
     style="display:inline;opacity:1;fill:url(#linearGradient4732);fill-opacity:1;stroke:none"
     inkscape:label="border"
     d="M 4,-0.5 C 4,4 4,4 -0.5,4 c 0,8 0,8 0,16 4.5,0 4.5,0 4.5,4.5 8.5,0 5.75,0 16,0 0,-4.5 0,-4.5 4.5,-4.5 0,-8.25 0,-8 0,-16 C 20,4 20,4 20,-0.5 c -11.25,0 -8,0 -16,0 z"
     sodipodi:nodetypes="ccccccccc" /><path
     id="path406-6"
     style="display:inline;fill:url(#keycap_surface);fill-opacity:1;stroke:none"
     inkscape:label="surface"
     d="M 5,-0.5 C 5,5 5,5 -0.5,5 c 0,8 0,7 0,14 5.5,0 5.5,0 5.5,5.5 7.75,0 4.5,0 14,0 0,-5.5 0,-5.5 5.5,-5.5 0,-8.25 0,-7 0,-14 C 19,5 19,5 19,-0.5 c -10.5,0 -7.75,0 -14,0 z"
     sodipodi:nodetypes="ccccccccc" /></svg>
