<?xml version="1.0" encoding="UTF-8" standalone="no"?>
<!-- Created with Inkscape (http://www.inkscape.org/) -->

<svg
   version="1.1"
   id="svg2"
   width="11"
   height="12"
   viewBox="0 0 11 12"
   sodipodi:docname="2_and_at.svg"
   inkscape:version="1.2.2 (b0a8486, 2022-12-01)"
   inkscape:export-filename="2_and_at.webp"
   inkscape:export-xdpi="192"
   inkscape:export-ydpi="192"
   xml:space="preserve"
   xmlns:inkscape="http://www.inkscape.org/namespaces/inkscape"
   xmlns:sodipodi="http://sodipodi.sourceforge.net/DTD/sodipodi-0.dtd"
   xmlns:xlink="http://www.w3.org/1999/xlink"
   xmlns="http://www.w3.org/2000/svg"
   xmlns:svg="http://www.w3.org/2000/svg"><defs
     id="defs6"><linearGradient
       id="base"
       inkscape:swatch="solid"
       gradientTransform="matrix(0,-23.563642,18.181822,0,1300.5608,2427.7857)"><stop
         style="stop-color:#ffffff;stop-opacity:1;"
         offset="0"
         id="stop2822" /></linearGradient><linearGradient
       inkscape:collect="always"
       xlink:href="#base"
       id="linearGradient2051"
       gradientUnits="userSpaceOnUse"
       gradientTransform="translate(-83.5,-49.75)" /></defs><sodipodi:namedview
     id="namedview4"
     pagecolor="#7e2553"
     bordercolor="#000000"
     borderopacity="0.30196078"
     inkscape:showpageshadow="true"
     inkscape:pageopacity="0"
     inkscape:pagecheckerboard="true"
     inkscape:deskcolor="#1d2b53"
     showgrid="true"
     inkscape:zoom="32"
     inkscape:cx="8.6875"
     inkscape:cy="4.609375"
     inkscape:window-width="1888"
     inkscape:window-height="1038"
     inkscape:window-x="16"
     inkscape:window-y="0"
     inkscape:window-maximized="1"
     inkscape:current-layer="svg2"
     showborder="true"
     borderlayer="true"><inkscape:grid
       type="xygrid"
       id="grid794"
       empspacing="9999"
       spacingx="0.25"
       spacingy="0.25"
       dotted="true"
       originx="0"
       originy="0"
       empcolor="#c2c3c7"
       empopacity="0.30196078"
       color="#c2c3c7"
       opacity="0.14901961" /><inkscape:grid
       type="xygrid"
       id="grid1166"
       empspacing="8"
       originx="0"
       originy="0"
       color="#c2c3c7"
       opacity="0.14901961"
       empcolor="#c2c3c7"
       empopacity="0.30196078" /></sodipodi:namedview><path
     style="display:inline;fill:url(#linearGradient2051);fill-opacity:1.0;stroke:none;stroke-width:1"
     d="m 7.5,6 h 1 C 8.5,6 9,5.75 9,4.75 9,3.75 8.5,3 7.5,3 6.5,3 6,4.25 6,5.5 c 0,1.75 1.25,3.25 3,2 v -1 C 7,8.25 6.25,4.75 7.5,4 8,3.75 8.25,4.25 8.25,4.5 8.25,5 8,5 7.5,5 Z"
     id="path23394"
     sodipodi:nodetypes="ccszccccccc"
     inkscape:label="at" /><path
     style="display:inline;fill:url(#base);fill-opacity:1;stroke:none"
     d="m 2,3.5 v 1 C 2.88264,3.915648 4,4 4,5 4,6 2,8 2,8 H 5 V 7 H 4 C 4,7 5,5.5 5,4.5 5,3.5 4.5,3 3.5,3 2.5,3 2,3.5 2,3.5 Z"
     id="path21810"
     sodipodi:nodetypes="cczcccczzc"
     inkscape:label="2" /></svg>
